<svg width="84" height="98" viewBox="0 0 84 98" fill="none" xmlns="http://www.w3.org/2000/svg">
<path d="M17.4992 63.6C16.1992 66.2 15.0992 69.2 13.1992 71.2C23.6992 81.6 46.2992 80.1 58.1992 73.5C60.1992 72.4 62.5992 70.2 64.6992 68.9C59.1992 58.7 55.5992 48.2 52.2992 37C50.3992 30.7 48.3992 24.5 46.2992 18.3C45.2992 15.4 44.4992 12.4 43.2992 9.60004C43.1992 9.30004 41.9992 5.30004 41.8992 5.40004C41.5992 6.70004 40.9992 9.00004 40.8992 9.40004C37.7992 22.3 32.1992 34.3 26.5992 46.3C23.6992 52.4 20.4992 57.7 17.4992 63.6Z" fill="#F9C467"/>
<path d="M54.4 18.3C53.5 16.3 50.1 10 47 7.40002C49.9 14 50.7 21.1 53 27.9C57.5 41.2 60.6 54.7 67.8 67C68.1 66.9 70.1 66.8 70.4 66.7C65.8 56.1 63.9 45.3 60.4 34.3C58.7 29 56.6 23.3 54.4 18.3Z" fill="#F4A321"/>
<path d="M80.0006 74.3L45.0006 95.1999C41.2006 94.2999 23.5006 91 19.9006 89.3C16.4006 87.6 11.9006 86.4 8.70059 83.9C6.70059 82.3 4.60059 79.7999 5.00059 76.0999C5.30059 72.6999 9.60059 71.4 12.0006 71.9C19.7006 81.3 30.7006 81.2 41.0006 80.4C47.2006 79.9 53.1006 78.8 58.7006 75.8C63.4006 73.3 72.9006 65.6999 77.7006 70.6999C79.1006 71.9999 79.8006 73.2 80.0006 74.3Z" fill="#996200"/>
<path d="M76.5001 81C73.3001 84.5 70.2001 87.5 66.2001 89.5C58.9001 93.1 50.9001 94.8 43.1001 94.8C39.0001 94.8 10.4001 85.2 14.4001 86C31.6001 89.9 59.9001 90.6 76.8001 72.2C78.4001 70.5 78.8001 78.5 76.5001 81Z" fill="#774F00"/>
<path d="M41.8 36.7999C43.8987 36.7999 45.6 35.0986 45.6 33C45.6 30.9013 43.8987 29.2 41.8 29.2C39.7013 29.2 38 30.9013 38 33C38 35.0986 39.7013 36.7999 41.8 36.7999Z" fill="#B75615"/>
<path d="M27.8 67.8C29.8987 67.8 31.6 66.0986 31.6 64C31.6 61.9013 29.8987 60.2 27.8 60.2C25.7013 60.2 24 61.9013 24 64C24 66.0986 25.7013 67.8 27.8 67.8Z" fill="#B75615"/>
<path d="M46.9992 55.8C49.0979 55.8 50.7992 54.0986 50.7992 52C50.7992 49.9013 49.0979 48.2 46.9992 48.2C44.9005 48.2 43.1992 49.9013 43.1992 52C43.1992 54.0986 44.9005 55.8 46.9992 55.8Z" fill="#B75615"/>
<path d="M36.7272 48.168L33.4434 46.064L29.1813 52.7158L32.4651 54.8198L36.7272 48.168Z" fill="#176B00"/>
<path d="M42.9292 65.0082L45.5527 62.1226L39.7075 56.8082L37.084 59.6938L42.9292 65.0082Z" fill="#176B00"/>
<path d="M43.6611 25.3122L45.4102 23.3884L41.4887 19.8231L39.7397 21.7469L43.6611 25.3122Z" fill="#176B00"/>
<path d="M36.2004 74C37.7468 74 39.0004 72.7464 39.0004 71.2C39.0004 69.6536 37.7468 68.4 36.2004 68.4C34.654 68.4 33.4004 69.6536 33.4004 71.2C33.4004 72.7464 34.654 74 36.2004 74Z" fill="#DDDD00"/>
<path d="M53.9992 65.1C55.5456 65.1 56.7992 63.8464 56.7992 62.3C56.7992 60.7536 55.5456 59.5 53.9992 59.5C52.4528 59.5 51.1992 60.7536 51.1992 62.3C51.1992 63.8464 52.4528 65.1 53.9992 65.1Z" fill="#DDDD00"/>
<path d="M41.3996 46.2999C42.946 46.2999 44.1996 45.0463 44.1996 43.5C44.1996 41.9536 42.946 40.7 41.3996 40.7C39.8532 40.7 38.5996 41.9536 38.5996 43.5C38.5996 45.0463 39.8532 46.2999 41.3996 46.2999Z" fill="#DDDD00"/>
<path d="M74.8003 65.3C69.1003 51.7 65.8003 37.4 60.6003 23.6C57.8003 16.3 51.8003 -3.30002 41.0003 1.69998C40.9003 1.69998 40.8003 1.69998 40.6003 1.69998C36.1003 1.49998 36.0003 7.69997 35.3003 10.8C33.6003 17.6 31.4003 24.2 28.8003 30.7C26.1003 37.5 23.0003 44.1 19.8003 50.6C17.2003 55.9 14.3003 65.8 8.70031 68.5C8.60031 68.6 8.50031 68.6 8.30031 68.7C5.20031 69.3 2.60031 71.4 1.30031 74.8C-1.09969 81.4 4.20031 85.1 9.30031 88.1C22.0003 95.8 37.4003 98.7 52.1003 96.5C59.3003 95.4 67.3003 93.3 73.2003 88.8C76.9003 85.9 83.0003 81.7 83.1003 76.4C83.2003 71.9 79.3003 66.6 74.8003 65.3ZM53.5003 20.4C55.5003 25.2 57.2003 30 58.7003 35C61.8003 45.3 65.0003 55.5 69.0003 65.5C68.7003 65.6 68.4003 65.7 68.1003 65.8C61.8003 54.3 58.9003 41.5 54.9003 29C52.9003 22.7 51.0003 16.1 48.5003 9.89997C50.8003 13.3 52.7003 18.5 53.5003 20.4ZM27.9003 46.6C33.2003 35.2 37.9003 23.5 40.9003 11.3C41.0003 10.9 41.5003 8.79998 41.8003 7.49998C41.9003 7.49998 41.9003 7.49998 42.0003 7.49998C42.3003 8.89998 43.0003 11.3 43.1003 11.6C44.3003 14.3 45.0003 17.1 46.0003 19.8C48.0003 25.7 49.9003 31.6 51.7003 37.5C54.9003 48.1 57.9003 58.7 63.2003 68.5C61.2003 69.8 59.2003 71.2 57.4003 72.2C46.1003 78.4 25.4003 80.3 15.4003 70.4C17.1003 68.4 18.4003 66 19.6003 63.6C22.4003 57.9 25.2003 52.3 27.9003 46.6ZM73.8003 81.1C70.8003 83.8 67.8003 86.1 64.1003 87.7C57.2003 90.5 49.7003 91.8 42.3003 91.8C34.8003 91.7 27.4003 90.3 20.5003 87.5C17.2003 86.2 13.9003 84.5 10.9003 82.5C9.00032 81.3 6.10031 80.1 6.40031 77.2C6.70031 74.6 9.20032 73.6 11.4003 74.1C18.6003 81.4 30.6003 82.9 40.4003 82.3C46.2003 81.9 52.0003 80.7 57.3003 78.3C61.7003 76.3 70.5003 67.7 75.0003 71.6C79.0003 75 77.1003 78.3 73.8003 81.1Z" fill="#231F20"/>
</svg>
